<svg xmlns="http://www.w3.org/2000/svg" width="800" height="800">
  <path d="M 229.07,702.69 L 229.00,702.30 L 228.42,702.45 L 227.33,703.41 L 225.78,705.39 L 223.85,708.54 L 221.70,712.82 L 219.53,717.90 L 217.62,723.18 L 216.24,727.83 L 215.71,730.93 L 216.23,731.72 L 217.93,729.82 L 220.77,725.31 L 224.58,718.78 L 229.07,711.21 L 233.91,703.68 L 238.80,697.16 L 243.53,692.22 L 248.02,688.91 L 252.31,686.83 L 256.56,685.24 L 260.92,683.32 L 265.56,680.44 L 270.51,676.32 L 275.74,671.10 L 281.14,665.26 L 286.53,659.46 L 291.78,654.26 L 296.79,650.00 L 301.56,646.68 L 306.17,643.98 L 310.73,641.39 L 315.36,638.42 L 320.16,634.71 L 325.16,630.20 L 330.30,625.09 L 335.51,619.79 L 340.69,614.74 L 345.76,610.26 L 350.69,606.47 L 355.48,603.25 L 360.20,600.26 L 364.92,597.15 L 369.69,593.58 L 374.58,589.41 L 379.56,584.72 L 384.63,579.74 L 389.73,574.81 L 394.80,570.22 L 399.82,566.15 L 404.76,562.57 L 409.63,559.31 L 414.44,556.09 L 419.22,552.63 L 424.01,548.75 L 428.83,544.39 L 433.71,539.69 L 438.67,534.84 L 443.74,530.10 L 448.90,525.68 L 454.12,521.68 L 459.33,518.07 L 464.41,514.77 L 469.20,511.62 L 473.51,508.55 L 477.16,505.55 L 480.01,502.77 L 481.93,500.45 L 482.89,498.91 L 482.93,498.47 L 482.13,499.37 L 480.61,501.68 L 478.54,505.33 L 476.07,510.04 L 473.36,515.38 L 470.58,520.85 L 467.88,525.94 L 465.42,530.22 L 463.34,533.40 L 461.74,535.44 L 460.70,536.45 L 460.17,536.78 L 460.05,536.88 L 460.08,537.23 L 459.94,538.24 L 459.26,540.17 L 457.66,543.09 L 454.87,546.84 L 450.75,551.07 L 445.39,555.35 L 439.10,559.22 L 432.39,562.32 L 425.94,564.41 L 420.52,565.42 L 416.83,565.43 L 415.41,564.62 L 416.53,563.19 L 420.11,561.34 L 425.71,559.21 L 432.58,556.91 L 439.74,554.53 L 446.16,552.16 L 450.88,549.98 L 453.23,548.20 L 452.89,547.06 L 449.96,546.80 L 444.94,547.56 L 438.56,549.38 L 431.72,552.11 L 425.20,555.46 L 419.62,559.01 L 415.24,562.33 L 412.02,565.01 L 409.62,566.72 L 407.57,567.31 L 405.35,566.77 L 402.56,565.24 L 399.00,562.92 L 394.66,560.05 L 389.71,556.88 L 384.40,553.54 L 378.99,550.14 L 373.62,546.68 L 368.36,543.13 L 363.13,539.41 L 357.84,535.48 L 352.43,531.36 L 346.92,527.13 L 341.45,522.95 L 336.31,519.04 L 331.79,515.67 L 328.18,513.05 L 325.67,511.31 L 324.24,510.43 L 323.77,510.21 L 323.96,510.33 L 324.50,510.32 L 325.11,509.72 L 325.64,508.13 L 326.05,505.32 L 326.46,501.26 L 327.07,496.11 L 328.07,490.20 L 329.60,483.88 L 331.68,477.49 L 334.20,471.20 L 336.98,465.06 L 339.79,458.97 L 342.43,452.81 L 344.80,446.52 L 346.84,440.18 L 348.62,434.07 L 350.22,428.62 L 351.74,424.31 L 353.21,421.56 L 354.62,420.58 L 355.91,421.27 L 357.01,423.25 L 357.87,425.90 L 358.53,428.52 L 359.08,430.51 L 359.73,431.49 L 360.70,431.40 L 362.23,430.47 L 364.52,429.12 L 367.72,427.83 L 371.88,426.96 L 376.96,426.67 L 382.86,426.89 L 389.44,427.36 L 396.49,427.74 L 403.77,427.76 L 411.02,427.30 L 417.91,426.44 L 424.14,425.44 L 429.42,424.61 L 433.53,424.23 L 436.38,424.43 L 438.03,425.17 L 438.67,426.23 L 438.64,427.30 L 438.29,428.10 L 437.97,428.48 L 437.92,428.47 L 438.18,428.28 L 438.67,428.22 L 439.15,428.58 L 439.35,429.59 L 439.03,431.26 L 438.08,433.43 L 436.53,435.79 L 434.58,437.97 L 432.48,439.62 L 430.49,440.50 L 428.78,440.54 L 427.35,439.82 L 426.06,438.51 L 424.70,436.90 L 423.03,435.28 L 420.93,433.91 L 418.45,433.08 L 415.81,432.99 L 413.40,433.84 L 411.62,435.70 L 410.79,438.57 L 411.00,442.26 L 412.10,446.45 L 413.69,450.64 L 415.23,454.33 L 416.20,457.05 L 416.23,458.51 L 415.25,458.73 L 413.48,458.02 L 411.45,456.94 L 409.79,456.20 L 409.13,456.45 L 409.88,458.15 L 412.18,461.38 L 415.85,465.91 L 420.48,471.17 L 425.57,476.48 L 430.69,481.22 L 435.59,484.97 L 440.26,487.61 L 444.90,489.32 L 449.81,490.50 L 455.24,491.57 L 461.26,492.88 L 467.66,494.56 L 473.98,496.53 L 479.58,498.58 L 483.79,500.41 L 486.06,501.86 L 486.13,502.91 L 484.01,503.75 L 480.06,504.68 L 474.79,506.01 L 468.81,507.94 L 462.62,510.45 L 456.58,513.33 L 450.81,516.21 L 445.27,518.70 L 439.83,520.51 L 434.31,521.56 L 428.60,522.00 L 422.69,522.13 L 416.61,522.31 L 410.45,522.78 L 404.27,523.61 L 398.06,524.62 L 391.77,525.49 L 385.33,525.84 L 378.71,525.43 L 371.99,524.27 L 365.37,522.63 L 359.23,521.05 L 354.01,520.17 L 350.15,520.52 L 348.04,522.41 L 347.85,525.82 L 349.56,530.37 L 352.95,535.48 L 357.62,540.51 L 363.11,544.92 L 368.98,548.42 L 374.88,551.00 L 380.60,552.86 L 386.08,554.28 L 391.39,555.51 L 396.66,556.63 L 402.09,557.51 L 407.79,557.87 L 413.86,557.42 L 420.25,555.96 L 426.83,553.53 L 433.34,550.43 L 439.42,547.15 L 444.66,544.31 L 448.63,542.45 L 450.97,541.90 L 451.43,542.73 L 449.96,544.71 L 446.71,547.44 L 441.99,550.42 L 436.25,553.24 L 429.98,555.62 L 423.59,557.48 L 417.36,558.87 L 411.39,559.88 L 405.63,560.60 L 399.92,561.01 L 394.12,560.98 L 388.16,560.33 L 382.08,558.89 L 376.09,556.59 L 370.41,553.48 L 365.26,549.75 L 360.75,545.64 L 356.77,541.41 L 353.07,537.25 L 349.31,533.21 L 345.16,529.25 L 340.43,525.27 L 335.24,521.23 L 329.94,517.16 L 325.13,513.28 L 321.49,509.90 L 319.63,507.36 L 319.91,505.97 L 322.37,505.86 L 326.70,506.94 L 332.35,508.93 L 338.68,511.39 L 345.11,513.85 L 351.28,515.95 L 357.06,517.47 L 362.58,518.40 L 368.09,518.89 L 373.84,519.14 L 379.99,519.37 L 386.51,519.65 L 393.24,519.98 L 399.93,520.21 L 406.38,520.20 L 412.49,519.81 L 418.32,519.03 L 424.08,517.93 L 429.96,516.64 L 436.09,515.29 L 442.39,513.94 L 448.54,512.50 L 454.03,510.78 L 458.22,508.57 L 460.57,505.68 L 460.71,502.11 L 458.60,498.07 L 454.52,493.98 L 448.99,490.37 L 442.69,487.75 L 436.23,486.45 L 430.07,486.51 L 424.44,487.65 L 419.33,489.33 L 414.52,490.90 L 409.76,491.80 L 404.77,491.73 L 399.39,490.74 L 393.56,489.21 L 387.38,487.76 L 380.97,487.01 L 374.55,487.41 L 368.36,489.09 L 362.65,491.76 L 357.72,494.78 L 353.88,497.38 L 351.46,498.83 L 350.74,498.66 L 351.89,496.82 L 354.89,493.70 L 359.56,490.00 L 365.49,486.57 L 372.19,484.15 L 379.11,483.19 L 385.84,483.70 L 392.09,485.28 L 397.78,487.22 L 402.96,488.72 L 407.74,489.09 L 412.17,487.96 L 416.18,485.33 L 419.57,481.61 L 422.04,477.49 L 423.33,473.73 L 423.31,470.99 L 422.08,469.67 L 419.97,469.82 L 417.49,471.16 L 415.16,473.17 L 413.37,475.26 L 412.24,476.91 L 411.61,477.83 L 411.09,477.95 L 410.19,477.47 L 408.54,476.72 L 406.01,476.05 L 402.83,475.69 L 399.51,475.65 L 396.70,475.73 L 394.97,475.55 L 394.61,474.67 L 395.52,472.78 L 397.22,469.76 L 399.00,465.86 L 400.17,461.59 L 400.26,457.72 L 399.23,455.04 L 397.50,454.17 L 395.80,455.41 L 394.97,458.62 L 395.66,463.19 L 398.10,468.19 L 402.02,472.55 L 406.70,475.33 L 411.15,475.90 L 414.40,474.12 L 415.81,470.34 L 415.18,465.31 L 412.82,459.97 L 409.41,455.24 L 405.78,451.78 L 402.65,449.83 L 400.44,449.24 L 399.25,449.52 L 398.81,450.01 L 398.75,450.10 L 398.72,449.37 L 398.54,447.71 L 398.28,445.28 L 398.15,442.46 L 398.42,439.70 L 399.21,437.36 L 400.39,435.65 L 401.60,434.61 L 402.32,434.13 L 402.04,434.07 L 400.50,434.32 L 397.75,434.89 L 394.23,435.86 L 390.62,437.34 L 387.64,439.35 L 385.81,441.76 L 385.28,444.25 L 385.81,446.34 L 386.78,447.52 L 387.51,447.38 L 387.42,445.81 L 386.30,443.02 L 384.39,439.55 L 382.31,436.17 L 380.86,433.65 L 380.72,432.59 L 382.22,433.22 L 385.17,435.32 L 388.88,438.32 L 392.32,441.42 L 394.42,443.83 L 394.39,445.00 L 391.93,444.74 L 387.32,443.27 L 381.36,441.15 L 375.12,439.05 L 369.65,437.59 L 365.75,437.10 L 363.77,437.60 L 363.62,438.77 L 364.90,440.09 L 367.06,441.02 L 369.59,441.17 L 372.21,440.42 L 374.82,438.93 L 377.47,437.07 L 380.21,435.25 L 382.97,433.84 L 385.49,432.98 L 387.36,432.61 L 388.17,432.49 L 387.62,432.31 L 385.76,431.85 L 382.96,431.05 L 379.92,430.03 L 377.45,429.06 L 376.29,428.44 L 376.82,428.36 L 378.96,428.83 L 382.14,429.62 L 385.46,430.33 L 387.91,430.51 L 388.67,429.83 L 387.37,428.14 L 384.15,425.56 L 379.68,422.45 L 374.93,419.25 L 370.96,416.39 L 368.57,414.09 L 368.15,412.34 L 369.55,410.88 L 372.16,409.32 L 375.12,407.31 L 377.48,404.72 L 378.52,401.69 L 377.89,398.68 L 375.63,396.36 L 372.18,395.43 L 368.20,396.42 L 364.41,399.49 L 361.43,404.37 L 359.63,410.38 L 359.11,416.58 L 359.74,421.94 L 361.23,425.60 L 363.20,427.03 L 365.35,426.10 L 367.43,423.09 L 369.33,418.53 L 371.05,413.08 L 372.62,407.40 L 374.07,401.97 L 375.40,397.16 L 376.52,393.15 L 377.28,390.06 L 377.47,388.01 L 376.91,387.11 L 375.46,387.51 L 373.11,389.26 L 370.02,392.30 L 366.50,396.36 L 362.99,400.92 L 359.99,405.33 L 357.96,408.83 L 357.26,410.81 L 358.02,410.84 L 360.18,408.86 L 363.42,405.13 L 367.31,400.20 L 371.39,394.75 L 375.25,389.43 L 378.66,384.69 L 381.59,380.72 L 384.22,377.39 L 386.85,374.37 L 389.81,371.24 L 393.34,367.61 L 397.55,363.29 L 402.35,358.28 L 407.52,352.82 L 412.75,347.25 L 417.77,341.93 L 422.41,337.09 L 426.66,332.80 L 430.62,328.92 L 434.51,325.21 L 438.51,321.40 L 442.74,317.30 L 447.19,312.91 L 451.69,308.43 L 456.01,304.20 L 459.90,300.65 L 463.17,298.11 L 465.77,296.75 L 467.80,296.47 L 469.47,296.95 L 471.02,297.67 L 472.63,298.11 L 474.37,297.84 L 476.11,296.70 L 477.62,294.78 L 478.57,292.47 L 478.69,290.29 L 477.85,288.77 L 476.11,288.30 L 473.80,288.96 L 471.38,290.55 L 469.46,292.57 L 468.55,294.39 L 469.03,295.37 L 471.02,295.06 L 474.35,293.29 L 478.61,290.22 L 483.24,286.31 L 487.68,282.15 L 491.45,278.36 L 494.30,275.39 L 496.23,273.47 L 497.48,272.55 L 498.47,272.38 L 499.65,272.55 L 501.40,272.69 L 503.90,272.55 L 507.10,272.04 L 510.69,271.26 L 514.22,270.42 L 517.19,269.79 L 519.18,269.55 L 520.01,269.78 L 519.82,270.39 L 519.02,271.21 L 518.25,272.00 L 518.26,272.57 L 519.69,272.86 L 522.95,272.94 L 528.05,273.03 L 534.65,273.42 L 542.03,274.40 L 549.28,276.19 L 555.44,278.87 L 559.74,282.35 L 561.67,286.39 L 561.15,290.70 L 558.41,294.95 L 553.99,298.87 L 548.54,302.29 L 542.69,305.16 L 536.89,307.53 L 531.35,309.50 L 526.05,311.17 L 520.78,312.61 L 515.26,313.80 L 509.29,314.62 L 502.81,314.91 L 495.99,314.48 L 489.22,313.20 L 483.05,311.04 L 478.07,308.11 L 474.76,304.72 L 473.46,301.29 L 474.22,298.36 L 476.84,296.43 L 480.92,295.89 L 485.94,296.89 L 491.39,299.29 L 496.86,302.65 L 502.16,306.27 L 507.23,309.33 L 512.18,311.07 L 517.15,310.91 L 522.17,308.65 L 527.08,304.48 L 531.50,298.98 L 534.85,292.97 L 536.47,287.37 L 535.79,282.96 L 532.51,280.21 L 526.77,279.20 L 519.18,279.62 L 510.76,280.87 L 502.75,282.23 L 496.37,283.06 L 492.53,282.96 L 491.61,281.87 L 493.36,280.02 L 496.95,277.94 L 501.17,276.22 L 504.75,275.41 L 506.68,275.88 L 506.43,277.74 L 504.16,280.88 L 500.62,284.95 L 496.96,289.53 L 494.42,294.13 L 494.01,298.31 L 496.25,301.71 L 501.02,304.04 L 507.63,305.10 L 514.98,304.79 L 521.83,303.13 L 527.12,300.25 L 530.17,296.45 L 530.81,292.18 L 529.37,287.96 L 526.52,284.30 L 523.10,281.63 L 519.92,280.16 L 517.57,279.84 L 516.37,280.38 L 516.36,281.32 L 517.36,282.17 L 519.06,282.50 L 521.15,282.12 L 523.32,281.07 L 525.36,279.58 L 527.15,277.99 L 528.66,276.57 L 529.90,275.45 L 531.00,274.53 L 532.13,273.57 L 533.51,272.22 L 535.38,270.26 L 537.93,267.70 L 541.29,264.85 L 545.43,262.26 L 550.17,260.62 L 555.20,260.51 L 560.14,262.24 L 564.63,265.66 L 568.41,270.19 L 571.34,274.92 L 573.43,278.85 L 574.79,281.13 L 575.54,281.30 L 575.74,279.42 L 575.33,275.98 L 574.16,271.80 L 572.04,267.72 L 568.84,264.37 L 564.56,261.99 L 559.43,260.38 L 553.87,258.97 L 548.38,257.10 L 543.44,254.19 L 539.37,250.03 L 536.19,244.80 L 533.65,239.10 L 531.28,233.74 L 528.51,229.53 L 524.89,227.06 L 520.19,226.52 L 514.46,227.71 L 508.04,230.12 L 501.38,233.09 L 494.95,236.02 L 489.06,238.54 L 483.77,240.60 L 478.93,242.38 L 474.24,244.25 L 469.45,246.57 L 464.43,249.59 L 459.29,253.36 L 454.34,257.75 L 449.97,262.52 L 446.56,267.43 L 444.26,272.30 L 442.94,277.11 L 442.24,281.95 L 441.63,286.97 L 440.62,292.30 L 438.92,297.98 L 436.56,303.94 L 433.85,310.03 L 431.35,316.07 L 429.60,321.95 L 429.00,327.64 L 429.64,333.24 L 431.29,338.91 L 433.48,344.77 L 435.69,350.88 L 437.52,357.15 L 438.85,363.38 L 439.90,369.32 L 441.08,374.76 L 442.89,379.64 L 445.65,384.10 L 449.37,388.45 L 453.70,393.08 L 457.96,398.35 L 461.41,404.39 L 463.42,411.07 L 463.68,417.96 L 462.35,424.41 L 459.92,429.73 L 457.13,433.35 L 454.62,435.04 L 452.81,434.91 L 451.69,433.45 L 450.85,431.41 L 449.68,429.57 L 447.57,428.59 L 444.17,428.82 L 439.58,430.27 L 434.33,432.60 L 429.29,435.28 L 425.37,437.74 L 423.27,439.52 L 423.26,440.40 L 425.06,440.42 L 427.97,439.85 L 431.07,439.10 L 433.53,438.58 L 434.83,438.59 L 434.96,439.24 L 434.41,440.45 L 433.96,441.96 L 434.48,443.41 L 436.60,444.39 L 440.52,444.56 L 445.96,443.67 L 452.19,441.60 L 458.28,438.37 L 463.31,434.13 L 466.63,429.12 L 467.97,423.61 L 467.45,417.88 L 465.51,412.17 L 462.75,406.62 L 459.70,401.28 L 456.75,396.11 L 454.06,390.99 L 451.61,385.81 L 449.28,380.46 L 446.93,374.92 L 444.50,369.26 L 442.05,363.57 L 439.71,357.98 L 437.64,352.55 L 436.00,347.22 L 434.87,341.87 L 434.26,336.27 L 434.14,330.21 L 434.46,323.59 L 435.22,316.52 L 436.43,309.31 L 438.13,302.50 L 440.34,296.72 L 443.00,292.57 L 445.95,290.41 L 448.95,290.33 L 451.71,292.01 L 453.98,294.87 L 455.60,298.17 L 456.58,301.18 L 457.11,303.40 L 457.52,304.64 L 458.25,305.06 L 459.73,305.08 L 462.30,305.22 L 466.15,305.93 L 471.26,307.44 L 477.39,309.68 L 484.11,312.31 L 490.82,314.84 L 496.84,316.78 L 501.47,317.79 L 504.13,317.76 L 504.38,316.81 L 502.12,315.24 L 497.54,313.40 L 491.23,311.53 L 484.03,309.70 L 476.95,307.80 L 471.01,305.59 L 466.98,302.82 L 465.30,299.37 L 465.96,295.36 L 468.52,291.18 L 472.27,287.42 L 476.42,284.74 L 480.30,283.74 L 483.53,284.74 L 486.12,287.73 L 488.40,292.32 L 490.92,297.83 L 494.18,303.36 L 498.52,308.03 L 503.95,311.08 L 510.16,312.05 L 516.58,310.82 L 522.56,307.63 L 527.57,303.02 L 531.28,297.74 L 533.65,292.66 L 534.85,288.57 L 535.14,286.13 L 534.73,285.71 L 533.69,287.34 L 531.88,290.70 L 529.07,295.16 L 525.05,299.84 L 519.83,303.85 L 513.70,306.38 L 507.28,306.92 L 501.41,305.32 L 496.95,301.88 L 494.54,297.25 L 494.40,292.28 L 496.23,287.82 L 499.27,284.52 L 502.47,282.70 L 504.77,282.27 L 505.38,282.79 L 503.98,283.61 L 500.83,284.05 L 496.71,283.56 L 492.69,281.90 L 489.90,279.15 L 489.24,275.65 L 491.18,271.91 L 495.68,268.42 L 502.21,265.56 L 509.93,263.49 L 517.81,262.15 L 524.89,261.34 L 530.38,260.77 L 533.79,260.21 L 534.92,259.54 L 533.83,258.80 L 530.81,258.12 L 526.26,257.73 L 520.67,257.83 L 514.54,258.60 L 508.30,260.14 L 502.30,262.44 L 496.73,265.45 L 491.66,269.05 L 486.96,273.07 L 482.46,277.29 L 477.94,281.39 L 473.27,285.04 L 468.49,287.82 L 463.80,289.36 L 459.63,289.38 L 456.47,287.76 L 454.80,284.61 L 454.98,280.27 L 457.10,275.25 L 460.98,270.12 L 466.22,265.42 L 472.27,261.52 L 478.57,258.54 L 484.68,256.37 L 490.36,254.74 L 495.59,253.27 L 500.51,251.67 L 505.37,249.78 L 510.42,247.65 L 515.82,245.46 L 521.66,243.52 L 527.90,242.08 L 534.47,241.30 L 541.23,241.16 L 548.08,241.45 L 554.85,241.86 L 561.33,242.04 L 567.24,241.70 L 572.16,240.70 L 575.64,239.05 L 577.24,236.92 L 576.67,234.55 L 573.85,232.19 L 569.02,230.06 L 562.69,228.33 L 555.54,227.05 L 548.31,226.27 L 541.59,226.00 L 535.73,226.23 L 530.74,226.98 L 526.36,228.23 L 522.18,229.89 L 517.74,231.87 L 512.75,233.99 L 507.12,236.06 L 500.97,237.98 L 494.62,239.71 L 488.37,241.33 L 482.47,243.06 L 477.02,245.17 L 471.97,247.90 L 467.17,251.36 L 462.53,255.48 L 458.10,259.98 L 454.15,264.39 L 451.10,268.17 L 449.46,270.82 L 449.67,271.96 L 451.94,271.48 L 456.16,269.52 L 461.91,266.44 L 468.52,262.72 L 475.27,258.87 L 481.57,255.29 L 487.07,252.24 L 491.77,249.78 L 495.97,247.86 L 500.13,246.29 L 504.74,244.93 L 510.16,243.63 L 516.51,242.37 L 523.62,241.15 L 531.14,240.05 L 538.60,239.11 L 545.50,238.33 L 551.45,237.66 L 556.15,236.99 L 559.42,236.18 L 561.14,235.16 L 561.23,233.88 L 559.62,232.42 L 556.33,230.92 L 551.46,229.60 L 545.27,228.68 L 538.19,228.34 L 530.75,228.67 L 523.52,229.67 L 516.96,231.21 L 511.32,233.09 L 506.56,235.10 L 502.36,237.06 L 498.25,238.86 L 493.73,240.51 L 488.42,242.16 L 482.25,244.02 L 475.45,246.34 L 468.49,249.30 L 462.02,252.97 L 456.63,257.22 L 452.77,261.75 L 450.61,266.08 L 450.07,269.69 L 450.91,272.10 L 452.81,272.96 L 455.52,272.17 L 458.91,269.89 L 462.97,266.50 L 467.76,262.51 L 473.28,258.48 L 479.42,254.84 L 485.91,251.85 L 492.37,249.55 L 498.43,247.80 L 503.84,246.38 L 508.59,245.03 L 512.93,243.61 L 517.37,242.11 L 522.44,240.63 L 528.54,239.36 L 535.79,238.45 L 543.88,237.94 L 552.09,237.75 L 559.47,237.65 L 565.05,237.38 L 568.10,236.68 L 568.31,235.46 L 565.89,233.79 L 561.55,231.95 L 556.26,230.35 L 551.04,229.38 L 546.68,229.36 L 543.57,230.40 L 541.65,232.38 L 540.44,234.99 L 539.28,237.80 L 537.45,240.43 L 534.48,242.59 L 530.19,244.19 L 524.73,245.33 L 518.50,246.24 L 512.00,247.18 L 505.65,248.39 L 499.72,249.99 L 494.21,252.02 L 488.98,254.41 L 483.80,257.09 L 478.48,260.03 L 473.02,263.24 L 467.60,266.79 L 462.63,270.72 L 458.60,274.96 L 456.00,279.32 L 455.16,283.42 L 456.21,286.78 L 459.01,288.90 L 463.20,289.39 L 468.29,288.08 L 473.77,285.10 L 479.24,280.86 L 484.42,275.96 L 489.23,271.07 L 493.78,266.78 L 498.25,263.46 L 502.87,261.23 L 507.85,259.97 L 513.31,259.36 L 519.29,259.05 L 525.71,258.75 L 532.44,258.33 L 539.30,257.82 L 546.09,257.44 L 552.60,257.49 L 558.63,258.27 L 563.98,260.02 L 568.46,262.83 L 571.95,266.62 L 574.39,271.12 L 575.81,275.94 L 576.39,280.55 L 576.43,284.38 L 576.31,286.88 L 576.45,287.56 L 577.18,286.13 L 578.69,282.53 L 580.89,276.98 L 583.44,270.02 L 585.79,262.39 L 587.25,254.98 L 587.18,248.62 L 585.13,243.91 L 581.03,241.15 L 575.21,240.18 L 568.40,240.49 L 561.61,241.30 L 555.94,241.79 L 552.32,241.26 L 551.34,239.33 L 553.11,236.00 L 557.27,231.63 L 563.02,226.84 L 569.38,222.31 L 575.38,218.62 L 580.28,216.15 L 583.66,215.01 L 585.51,215.06 L 586.15,216.06 L 586.06,217.76 L 585.75,219.96 L 585.59,222.58 L 585.77,225.62 L 586.22,229.08 L 586.77,232.87 L 587.19,236.79 L 587.32,240.55 L 587.12,243.83 L 586.68,246.40 L 586.21,248.22 L 585.91,249.51 L 585.92,250.70 L 586.24,252.36 L 586.75,254.98 L 587.19,258.87 L 587.31,264.02 L 586.88,270.08 L 585.76,276.43 L 583.95,282.36 L 581.53,287.27 L 578.63,290.82 L 575.38,293.04 L 571.83,294.26 L 567.98,295.06 L 563.74,296.06 L 559.03,297.72 L 553.81,300.25 L 548.11,303.55 L 542.06,307.22 L 535.89,310.78 L 529.94,313.73 L 524.57,315.72 L 520.16,316.63 L 517.11,316.54 L 515.72,315.69 L 516.24,314.36 L 518.79,312.80 L 523.28,311.12 L 529.44,309.32 L 536.71,307.32 L 544.35,304.96 L 551.47,302.16 L 557.17,298.87 L 560.73,295.12 L 561.78,291.04 L 560.35,286.82 L 556.98,282.67 L 552.54,278.86 L 548.16,275.69 L 544.90,273.46 L 543.61,272.45 L 544.68,272.84 L 548.02,274.65 L 553.11,277.67 L 559.15,281.40 L 565.25,285.13 L 570.68,288.02 L 574.98,289.31 L 578.02,288.49 L 579.98,285.46 L 581.20,280.64 L 582.05,274.89 L 582.79,269.39 L 583.52,265.33 L 584.16,263.68 L 584.54,264.96 L 584.50,269.13 L 583.98,275.62 L 583.07,283.51 L 581.99,291.78 L 581.04,299.57 L 580.48,306.36 L 580.48,312.08 L 581.06,317.02 L 582.10,321.69 L 583.35,326.64 L 584.58,332.22 L 585.58,338.54 L 586.26,345.43 L 586.64,352.55 L 586.79,359.50 L 586.83,366.01 L 586.82,372.01 L 586.77,377.62 L 586.63,383.11 L 586.29,388.75 L 585.67,394.74 L 584.74,401.11 L 583.55,407.72 L 582.19,414.32 L 580.77,420.65 L 579.39,426.55 L 578.08,432.01 L 576.80,437.16 L 575.45,442.25 L 573.92,447.51 L 572.15,453.10 L 570.10,459.02 L 567.85,465.14 L 565.49,471.24 L 563.13,477.08 L 560.84,482.54 L 558.63,487.61 L 556.43,492.42 L 554.13,497.19 L 551.62,502.12 L 548.85,507.35 L 545.82,512.88 L 542.62,518.58 L 539.37,524.25 L 536.17,529.68 L 533.08,534.76 L 530.07,539.49 L 527.06,543.99 L 523.91,548.45 L 520.50,553.07 L 516.79,557.95 L 512.79,563.10 L 508.63,568.38 L 504.45,573.62 L 500.38,578.63 L 496.45,583.33 L 492.65,587.71 L 488.84,591.91 L 484.87,596.08 L 480.60,600.39 L 475.98,604.89 L 471.05,609.52 L 465.94,614.12 L 460.83,618.49 L 455.86,622.45 L 451.09,625.90 L 446.45,628.86 L 441.81,631.49 L 436.96,633.92 L 431.73,636.31 L 426.06,638.65 L 419.98,640.84 L 413.68,642.64 L 407.36,643.78 L 401.23,644.06 L 395.41,643.37 L 389.91,641.78 L 384.63,639.49 L 379.42,636.74 L 374.18,633.75 L 368.89,630.59 L 363.71,627.22 L 358.89,623.45 L 354.81,619.05 L 351.81,613.90 L 350.14,608.01 L 349.91,601.62 L 351.05,595.16 L 353.38,589.12 L 356.66,583.96 L 360.66,579.95 L 365.23,577.13 L 370.29,575.29 L 375.80,574.04 L 381.72,572.96 L 387.98,571.75 L 394.41,570.26 L 400.81,568.58 L 406.98,566.90 L 412.80,565.48 L 418.25,564.44 L 423.46,563.70 L 428.63,562.98 L 433.98,561.85 L 439.64,559.85 L 445.54,556.70 L 451.42,552.38 L 456.83,547.22 L 461.23,541.83 L 464.17,536.98 L 465.33,533.41 L 464.65,531.63 L 462.31,531.84 L 458.69,533.84 L 454.22,537.15 L 449.29,541.12 L 444.17,545.10 L 438.95,548.59 L 433.59,551.33 L 428.00,553.31 L 422.12,554.69 L 415.99,555.68 L 409.74,556.45 L 403.56,557.04 L 397.62,557.36 L 392.00,557.19 L 386.64,556.29 L 381.39,554.49 L 376.04,551.72 L 370.47,548.08 L 364.76,543.80 L 359.18,539.21 L 354.22,534.67 L 350.49,530.50 L 348.52,526.97 L 348.67,524.26 L 351.01,522.44 L 355.29,521.51 L 361.00,521.38 L 367.54,521.90 L 374.33,522.85 L 380.98,523.96 L 387.33,524.96 L 393.44,525.61 L 399.47,525.74 L 405.59,525.32 L 411.90,524.40 L 418.32,523.16 L 424.68,521.82 L 430.79,520.54 L 436.51,519.43 L 441.86,518.44 L 447.03,517.41 L 452.29,516.12 L 457.90,514.40 L 463.95,512.17 L 470.27,509.49 L 476.41,506.64 L 481.72,503.93 L 485.47,501.72 L 487.12,500.21 L 486.38,499.39 L 483.36,499.06 L 478.54,498.79 L 472.60,498.16 L 466.28,496.79 L 460.17,494.57 L 454.60,491.64 L 449.55,488.42 L 444.80,485.49 L 440.00,483.39 L 434.84,482.47 L 429.21,482.77 L 423.18,484.03 L 417.00,485.68 L 410.97,487.12 L 405.32,487.83 L 400.09,487.58 L 395.13,486.49 L 390.14,485.01 L 384.78,483.78 L 378.85,483.45 L 372.37,484.43 L 365.64,486.77 L 359.21,490.12 L 353.74,493.83 L 349.85,497.08 L 347.98,499.18 L 348.31,499.68 L 350.69,498.56 L 354.76,496.19 L 360.02,493.23 L 365.96,490.44 L 372.15,488.43 L 378.32,487.57 L 384.32,487.85 L 390.10,488.93 L 395.67,490.28 L 401.06,491.33 L 406.32,491.67 L 411.50,491.17 L 416.71,489.99 L 422.05,488.54 L 427.63,487.35 L 433.51,486.92 L 439.59,487.60 L 445.62,489.49 L 451.17,492.43 L 455.69,496.10 L 458.65,500.06 L 459.60,503.92 L 458.37,507.36 L 455.07,510.23 L 450.08,512.50 L 443.97,514.25 L 437.36,515.61 L 430.77,516.69 L 424.48,517.58 L 418.55,518.33 L 412.84,518.93 L 407.09,519.41 L 401.10,519.76 L 394.76,520.00 L 388.16,520.13 L 381.47,520.13 L 374.94,519.95 L 368.75,519.49 L 362.91,518.66 L 357.32,517.38 L 351.74,515.64 L 345.98,513.52 L 339.98,511.23 L 333.91,509.03 L 328.18,507.26 L 323.41,506.20 L 320.21,506.11 L 319.06,507.08 L 320.13,509.11 L 323.24,512.06 L 327.87,515.73 L 333.32,519.88 L 338.85,524.26 L 343.91,528.72 L 348.26,533.11 L 351.98,537.37 L 355.41,541.46 L 359.02,545.34 L 363.20,548.97 L 368.17,552.29 L 373.91,555.22 L 380.16,557.67 L 386.57,559.58 L 392.81,560.86 L 398.71,561.48 L 404.28,561.41 L 409.74,560.68 L 415.34,559.32 L 421.31,557.45 L 427.66,555.22 L 434.16,552.84 L 440.31,550.61 L 445.50,548.81 L 449.11,547.73 L 450.65,547.55 L 449.96,548.37 L 447.14,550.12 L 442.60,552.60 L 436.89,555.50 L 430.62,558.44 L 424.27,561.09 L 418.14,563.21 L 412.32,564.70 L 406.73,565.60 L 401.21,566.09 L 395.57,566.43 L 389.71,566.89 L 383.63,567.71 L 377.44,569.03 L 371.32,570.95 L 365.50,573.47 L 360.18,576.57 L 355.55,580.22 L 351.77,584.41 L 348.93,589.12 L 347.13,594.33 L 346.41,599.96 L 346.81,605.90 L 348.28,611.93 L 350.76,617.82 L 354.10,623.31 L 358.14,628.22 L 362.69,632.40 L 367.60,635.85 L 372.76,638.64 L 378.10,640.89 L 383.61,642.73 L 389.31,644.25 L 395.21,645.46 L 401.27,646.30 L 407.44,646.66 L 413.62,646.41 L 419.70,645.48 L 425.58,643.88 L 431.21,641.70 L 436.60,639.06 L 441.78,636.15 L 446.82,633.08 L 451.80,629.94 L 456.76,626.70 L 461.68,623.31 L 466.56,619.66 L 471.33,615.69 L 475.97,611.38 L 480.46,606.80 L 484.82,602.05 L 489.08,597.27 L 493.30,592.57 L 497.50,588.01 L 501.69,583.56 L 505.83,579.13 L 509.89,574.62 L 513.80,569.94 L 517.54,565.03 L 521.11,559.95 L 524.55,554.76 L 527.91,549.58 L 531.25,544.51 L 534.58,539.58 L 537.91,534.76 L 541.19,529.97 L 544.37,525.09 L 547.41,520.03 L 550.26,514.77 L 552.96,509.31 L 555.52,503.77 L 558.01,498.24 L 560.47,492.82 L 562.91,487.53 L 565.33,482.34 L 567.68,477.17 L 569.91,471.88 L 571.97,466.41 L 573.86,460.71 L 575.61,454.84 L 577.26,448.91 L 578.86,443.03 L 580.45,437.28 L 582.02,431.68 L 583.53,426.17 L 584.92,420.61 L 586.11,414.88 L 587.07,408.88 L 587.82,402.61 L 588.41,396.17 L 588.92,389.72 L 589.41,383.42 L 589.91,377.37 L 590.37,371.56 L 590.70,365.85 L 590.76,360.02 L 590.42,353.87 L 589.65,347.31 L 588.47,340.44 L 587.03,333.60 L 585.58,327.35 L 584.36,322.33 L 583.60,319.15 L 583.44,318.24 L 583.90,319.73 L 584.87,323.42 L 586.14,328.84 L 587.49,335.36 L 588.69,342.31 L 589.59,349.17 L 590.15,355.64 L 590.38,361.67 L 590.36,367.38 L 590.17,373.03 L 589.88,378.84 L 589.52,384.95 L 589.08,391.33 L 588.50,397.87 L 587.74,404.36 L 586.79,410.62 L 585.66,416.57 L 584.38,422.20 L 583.00,427.65 L 581.55,433.08 L 580.06,438.63 L 578.52,444.38 L 576.89,450.31 L 575.15,456.30 L 573.25,462.22 L 571.21,467.93 L 569.05,473.38 L 566.78,478.59 L 564.45,483.68 L 562.08,488.77 L 559.65,493.99 L 557.14,499.39 L 554.53,504.92 L 551.79,510.50 L 548.93,515.98 L 545.95,521.27 L 542.90,526.32 L 539.81,531.17 L 536.69,535.93 L 533.53,540.72 L 530.31,545.64 L 526.97,550.71 L 523.48,555.90 L 519.82,561.10 L 516.00,566.18 L 512.06,571.05 L 508.05,575.69 L 504.03,580.14 L 500.00,584.51 L 495.97,588.94 L 491.88,593.51 L 487.68,598.24 L 483.31,603.06 L 478.77,607.83 L 474.08,612.40 L 469.29,616.66 L 464.48,620.54 L 459.68,624.08 L 454.91,627.38 L 450.14,630.56 L 445.27,633.68 L 440.21,636.76 L 434.90,639.70 L 429.29,642.34 L 423.42,644.48 L 417.38,645.99 L 411.27,646.76 L 405.20,646.82 L 399.25,646.26 L 393.43,645.21 L 387.73,643.80 L 382.09,642.08 L 376.52,640.01 L 371.03,637.50 L 365.74,634.41 L 360.80,630.64 L 356.41,626.15 L 352.74,621.01 L 349.94,615.37 L 348.06,609.48 L 347.15,603.57 L 347.18,597.84 L 348.15,592.43 L 350.10,587.43 L 353.07,582.87 L 357.13,578.77 L 362.26,575.17 L 368.32,572.15 L 375.01,569.79 L 381.83,568.18 L 388.14,567.34 L 393.24,567.20 L 396.52,567.64 L 397.55,568.45 L 396.17,569.43 L 392.55,570.45 L 387.16,571.48 L 380.64,572.61 L 373.74,574.04 L 367.12,576.03 L 361.32,578.80 L 356.69,582.49 L 353.35,587.09 L 351.31,592.45 L 350.45,598.32 L 350.65,604.36 L 351.83,610.28 L 353.90,615.84 L 356.82,620.89 L 360.53,625.41 L 364.96,629.40 L 369.98,632.90 L 375.42,635.95 L 381.13,638.54 L 386.97,640.60 L 392.83,642.09 L 398.68,642.95 L 404.51,643.16 L 410.34,642.75 L 416.17,641.78 L 422.00,640.34 L 427.76,638.49 L 433.39,636.29 L 438.84,633.77 L 444.06,630.92 L 449.06,627.75 L 453.89,624.27 L 458.62,620.53 L 463.33,616.58 L 468.05,612.50 L 472.79,608.34 L 477.49,604.11 L 482.11,599.83 L 486.59,595.44 L 490.88,590.91 L 494.99,586.23 L 498.96,581.41 L 502.85,576.49 L 506.71,571.55 L 510.56,566.65 L 514.38,561.84 L 518.15,557.10 L 521.80,552.40 L 525.29,547.65 L 528.61,542.78 L 531.79,537.75 L 534.88,532.55 L 537.92,527.25 L 540.97,521.92 L 544.01,516.64 L 547.02,511.47 L 549.94,506.41 L 552.71,501.38 L 555.29,496.30 L 557.68,491.08 L 559.92,485.67 L 562.07,480.07 L 564.21,474.35 L 566.36,468.60 L 568.52,462.92 L 570.64,457.37 L 572.65,451.94 L 574.49,446.58 L 576.13,441.16 L 577.58,435.60 L 578.88,429.82 L 580.11,423.82 L 581.33,417.67 L 582.55,411.47 L 583.74,405.34 L 584.82,399.34 L 585.70,393.46 L 586.32,387.64 L 586.66,381.76 L 586.79,375.70 L 586.78,369.39 L 586.72,362.86 L 586.68,356.18 L 586.61,349.53 L 586.41,343.07 L 585.88,336.95 L 584.85,331.21 L 583.15,325.84 L 580.73,320.75 L 577.64,315.81 L 574.00,310.92 L 569.99,306.01 L 565.74,301.10 L 561.33,296.21 L 556.76,291.43 L 552.00,286.80 L 547.09,282.33 L 542.16,278.00 L 537.55,273.80 L 533.79,269.76 L 531.49,266.01 L 531.22,262.75 L 533.34,260.27 L 537.86,258.87 L 544.34,258.78 L 551.98,260.07 L 559.69,262.61 L 566.35,266.04 L 571.04,269.88 L 573.21,273.56 L 572.81,276.54 L 570.20,278.47 L 566.03,279.19 L 561.05,278.77 L 555.85,277.46 L 550.72,275.64 L 545.65,273.69 L 540.37,271.93 L 534.57,270.59 L 528.05,269.73 L 520.90,269.35 L 513.59,269.33 L 506.84,269.53 L 501.53,269.79 L 498.40,269.93 L 497.89,269.79 L 499.99,269.19 L 504.21,267.99 L 509.70,266.06 L 515.49,263.32 L 520.66,259.77 L 524.57,255.48 L 526.98,250.57 L 528.03,245.19 L 528.13,239.48 L 527.79,233.53 L 527.50,227.37 L 527.54,221.00 L 527.99,214.41 L 528.73,207.63 L 529.54,200.74 L 530.24,193.88 L 530.72,187.23 L 530.99,180.91 L 531.16,174.96 L 531.38,169.29 L 531.73,163.69 L 532.24,157.85 L 532.82,151.52 L 533.35,144.57 L 533.73,137.09 L 533.94,129.43 L 534.09,122.14 L 534.40,115.88 L 535.13,111.25 L 536.52,108.68 L 538.68,108.31 L 541.58,109.98 L 545.00,113.29 L 548.66,117.73 L 552.26,122.82 L 555.56,128.22 L 558.50,133.76 L 561.12,139.45 L 563.57,145.32 L 566.02,151.34 L 568.55,157.30 L 571.07,162.79 L 573.39,167.26 L 575.20,170.10 L 576.20,170.85 L 576.19,169.32 L 575.15,165.66 L 573.23,160.37 L 570.72,154.13 L 567.98,147.66 L 565.25,141.55 L 562.66,136.09 L 560.13,131.25 L 557.46,126.77 L 554.38,122.27 L 550.72,117.44 L 546.48,112.18 L 541.87,106.70 L 537.32,101.41 L 533.34,96.87 L 530.38,93.57 L 528.72,91.80 L 528.33,91.50 L 528.90,92.30 L 529.91,93.57 L 530.70,94.64 L 530.74,94.92 L 529.67,94.06 L 527.43,92.03 L 524.21,89.10 L 520.42,85.69 L 516.50,82.28 L 512.87,79.26 L 509.74,76.82 L 507.15,74.95 L 504.98,73.50 L 502.99,72.23 L 500.96,70.95 L 498.73,69.54 L 496.21,68.02 L 493.40,66.46 L 490.29,64.98 L 486.84,63.65 L 482.94,62.45 L 478.41,61.29 L 473.08,60.02 L 466.87,58.48 L 459.88,56.60 L 452.45,54.41 L 445.16,52.04 L 438.72,49.71 L 433.89,47.69 L 431.29,46.20 L 431.27,45.39 L 433.86,45.31 L 438.70,45.91 L 445.18,47.10 L 452.51,48.73 L 459.90,50.64 L 466.64,52.67 L 472.23,54.68 L 476.32,56.51 L 478.77,58.01 L 479.54,59.00 L 478.62,59.36 L 476.07,59.02 L 471.95,58.00 L 466.40,56.39 L 459.69,54.41 L 452.23,52.29 L 444.58,50.28 L 437.41,48.57 L 431.42,47.27 L 427.18,46.40 L 425.11,45.90 L 425.34,45.68 L 427.75,45.67 L 431.96,45.82 L 437.49,46.15 L 443.76,46.76 L 450.29,47.70 L 456.72,49.05 L 462.85,50.81 L 468.61,52.92 L 474.06,55.28 L 479.30,57.76 L 484.45,60.29 L 489.57,62.82 L 494.70,65.39 L 499.83,68.10 L 504.94,71.06 L 510.00,74.36 L 514.97,78.04 L 519.84,82.10 L 524.58,86.44 L 529.17,90.96 L 533.59,95.55 L 537.81,100.15 L 541.81,104.73 L 545.59,109.34 L 549.17,114.03 L 552.57,118.87 L 555.83,123.91 L 558.96,129.13 L 561.96,134.49 L 564.80,139.93 L 567.46,145.36 L 569.88,150.77 L 572.06,156.13 L 574.00,161.48 L 575.75,166.88 L 577.39,172.39 L 578.98,178.05 L 580.55,183.87 L 582.12,189.82 L 583.64,195.84 L 585.04,201.89 L 586.23,207.91 L 587.15,213.87 L 587.77,219.79 L 588.12,225.70 L 588.26,231.68 L 588.26,237.78 L 588.18,244.07 L 588.05,250.55 L 587.83,257.18 L 587.44,263.85 L 586.79,270.39 L 585.78,276.56 L 584.34,282.10 L 582.45,286.77 L 580.11,290.43 L 577.34,293.04 L 574.16,294.72 L 570.60,295.76 L 566.64,296.54 L 562.26,297.51 L 557.46,299.01 L 552.29,301.26 L 546.82,304.25 L 541.17,307.74 L 535.47,311.32 L 529.83,314.52 L 524.29,316.88 L 518.80,318.16 L 513.26,318.31 L 507.54,317.55 L 501.54,316.23 L 495.24,314.80 L 488.73,313.57 L 482.25,312.70 L 476.09,312.08 L 470.55,311.42 L 465.87,310.33 L 462.13,308.45 L 459.26,305.65 L 457.03,302.04 L 455.13,298.06 L 453.23,294.34 L 451.10,291.59 L 448.62,290.42 L 445.87,291.23 L 443.00,294.07 L 440.27,298.69 L 437.91,304.60 L 436.09,311.23 L 434.88,318.05 L 434.27,324.67 L 434.19,330.93 L 434.56,336.84 L 435.32,342.53 L 436.44,348.16 L 437.95,353.83 L 439.84,359.55 L 442.10,365.26 L 444.65,370.85 L 447.40,376.21 L 450.21,381.35 L 453.00,386.33 L 455.71,391.31 L 458.33,396.46 L 460.84,401.90 L 463.18,407.66 L 465.17,413.66 L 466.53,419.68 L 466.90,425.45 L 465.90,430.72 L 463.27,435.24 L 459.00,438.89 L 453.37,441.62 L 446.93,443.44 L 440.46,444.42 L 434.70,444.65 L 430.21,444.20 L 427.19,443.19 L 425.41,441.73 L 424.26,440.01 L 422.95,438.25 L 420.77,436.71 L 417.32,435.61 L 412.71,435.15 L 407.54,435.44 L 402.82,436.49 L 399.62,438.25 L 398.79,440.64 L 400.64,443.60 L 404.83,447.10 L 410.37,451.13 L 415.93,455.70 L 420.09,460.72 L 421.82,465.96 L 420.70,471.03 L 417.04,475.41 L 411.75,478.49 L 406.08,479.76 L 401.20,478.91 L 397.88,475.93 L 396.25,471.18 L 395.83,465.30 L 395.65,459.09 L 394.68,453.35 L 392.11,448.68 L 387.67,445.38 L 381.72,443.38 L 375.14,442.36 L 369.06,441.80 L 364.50,441.22 L 362.08,440.29 L 361.77,438.90 L 362.96,437.15 L 364.66,435.28 L 365.79,433.48 L 365.56,431.84 L 363.72,430.21 L 360.63,428.24 L 357.15,425.51 L 354.38,421.63 L 353.30,416.42 L 354.51,410.03 L 357.98,402.95 L 363.13,395.96 L 368.95,389.90 L 374.30,385.58 L 378.23,383.51 L 380.22,383.87 L 380.24,386.46 L 378.77,390.77 L 376.60,396.16 L 374.59,401.98 L 373.45,407.74 L 373.63,413.11 L 375.23,417.97 L 378.10,422.30 L 381.93,426.09 L 386.41,429.29 L 391.32,431.77 L 396.56,433.35 L 402.10,433.88 L 407.94,433.35 L 414.01,431.92 L 420.16,429.95 L 426.16,427.96 L 431.75,426.51 L 436.75,426.00 L 441.07,426.64 L 444.79,428.30 L 448.08,430.54 L 451.13,432.73 L 454.09,434.13 L 456.96,434.13 L 459.57,432.35 L 461.62,428.72 L 462.78,423.49 L 462.78,417.18 L 461.54,410.40 L 459.17,403.73 L 455.98,397.57 L 452.41,392.11 L 448.90,387.28 L 445.77,382.83 L 443.18,378.43 L 441.08,373.76 L 439.29,368.61 L 437.61,362.92 L 435.87,356.76 L 434.06,350.34 L 432.29,343.89 L 430.83,337.59 L 429.94,331.57 L 429.85,325.82 L 430.61,320.27 L 432.12,314.79 L 434.12,309.24 L 436.28,303.54 L 438.29,297.69 L 439.98,291.77 L 441.31,285.88 L 442.45,280.20 L 443.67,274.83 L 445.27,269.86 L 447.52,265.29 L 450.57,261.07 L 454.42,257.15 L 458.96,253.45 L 464.00,249.95 L 469.31,246.66 L 474.74,243.63 L 480.19,240.92 L 485.64,238.56 L 491.09,236.54 L 496.61,234.79 L 502.21,233.20 L 507.89,231.66 L 513.63,230.07 L 519.42,228.44 L 525.25,226.87 L 531.16,225.58 L 537.18,224.80 L 543.37,224.77 L 549.71,225.60 L 556.14,227.27 L 562.49,229.51 L 568.52,231.91 L 573.96,233.93 L 578.52,235.02 L 582.03,234.73 L 584.37,232.80 L 585.59,229.20 L 585.84,224.15 L 585.34,218.06 L 584.34,211.40 L 583.07,204.62 L 581.68,198.08 L 580.26,191.94 L 578.82,186.23 L 577.33,180.84 L 575.73,175.58 L 573.96,170.29 L 572.00,164.87 L 569.84,159.31 L 567.50,153.67 L 564.99,148.06 L 562.33,142.58 L 559.54,137.29 L 556.61,132.19 L 553.54,127.25 L 550.33,122.37 L 546.95,117.49 L 543.42,112.58 L 539.71,107.65 L 535.81,102.74 L 531.72,97.96 L 527.41,93.37 L 522.88,89.02 L 518.15,84.94 L 513.26,81.10 L 508.24,77.46 L 503.17,74.00 L 498.09,70.72 L 493.03,67.62 L 487.98,64.74 L 482.88,62.12 L 477.69,59.77 L 472.32,57.69 L 466.70,55.81 L 460.84,54.10 L 454.74,52.52 L 448.52,51.04 L 442.32,49.71 L 436.33,48.59 L 430.78,47.73 L 425.90,47.13 L 421.92,46.73 L 419.05,46.34 L 417.48,45.70 L 417.31,44.49 L 418.60,42.41 L 421.27,39.27 L 425.11,35.03 L 429.77,29.85 L 434.79,24.07 L 439.60,18.16 L 443.63,12.65 L 446.37,8.02 L 447.43,4.63 L 446.63,2.66 L 444.01,2.08 L 439.82,2.73 L 434.47,4.31 L 428.43,6.52 L 422.19,9.08 L 416.10,11.81 L 410.41,14.61 L 405.19,17.49 L 400.37,20.52 L 395.79,23.78 L 391.30,27.34 L 386.76,31.22 L 382.12,35.40 L 377.42,39.83 L 372.76,44.44 L 368.27,49.16 L 364.09,53.94 L 360.29,58.78 L 356.88,63.67 L 353.81,68.65 L 350.99,73.71 L 348.33,78.89 L 345.76,84.18 L 343.24,89.57 L 340.81,95.03 L 338.52,100.58 L 336.47,106.19 L 334.73,111.89 L 333.35,117.69 L 332.36,123.61 L 331.74,129.65 L 331.43,135.81 L 331.41,142.05 L 331.63,148.33 L 332.06,154.60 L 332.72,160.79 L 333.59,166.86 L 334.70,172.80 L 336.04,178.60 L 337.58,184.30 L 339.30,189.92 L 341.14,195.51 L 343.07,201.08 L 345.05,206.67 L 347.07,212.25 L 349.10,217.83 L 351.13,223.39 L 353.15,228.93 L 355.12,234.46 L 357.00,240.02 L 358.71,245.66 L 360.20,251.42 L 361.39,257.33 L 362.26,263.41 L 362.78,269.64 L 362.96,275.95 L 362.82,282.29 L 362.38,288.57 L 361.65,294.71 L 360.64,300.69 L 359.33,306.48 L 357.70,312.09 L 355.73,317.56 L 353.41,322.92 L 350.75,328.21 L 347.80,333.43 L 344.62,338.60 L 341.28,343.69 L 337.83,348.69 L 334.33,353.61 L 330.79,358.46 L 327.23,363.26 L 323.62,368.05 L 319.96,372.86 L 316.24,377.70 L 312.45,382.59 L 308.63,387.49 L 304.79,392.38 L 300.97,397.24 L 297.18,402.05 L 293.43,406.81 L 289.74,411.55 L 286.10,416.32 L 282.51,421.14 L 278.97,426.05 L 275.51,431.06 L 272.13,436.16 L 268.88,441.31 L 265.77,446.48 L 262.82,451.65 L 260.02,456.81 L 257.37,461.98 L 254.87,467.20 L 252.52,472.51 L 250.32,477.95 L 248.31,483.54 L 246.52,489.30 L 245.00,495.20 L 243.79,501.21 L 242.92,507.30 L 242.40,513.44 L 242.24,519.60 L 242.43,525.76 L 242.96,531.89 L 243.81,537.98 L 244.99,543.99 L 246.47,549.87 L 248.26,555.59 L 250.33,561.14 L 252.64,566.52 L 255.15,571.77 L 257.80,576.94 L 260.53,582.10 L 263.30,587.30 L 266.07,592.56 L 268.85,597.88 L 271.64,603.22 L 274.46,608.54 L 277.31,613.79 L 280.19,618.95 L 283.07,624.05 L 285.90,629.12 L 288.65,634.24 L 291.27,639.47 L 293.75,644.85 L 296.08,650.37 L 298.29,655.99 L 300.39,661.63 L 302.42,667.25 L 304.38,672.79 L 306.26,678.27 L 308.00,683.76 L 309.56,689.33 L 310.88,695.09 L 311.91,701.09 L 312.62,707.33 L 313.02,713.74 L 313.11,720.19 L 312.91,726.56 L 312.43,732.73 L 311.69,738.65 L 310.65,744.33 L 309.29,749.86 L 307.58,755.35 L 305.46,760.86 L 302.92,766.43 L 299.95,771.98 L 296.52,777.32 L 292.64,782.22 L 288.31,786.47 L 283.53,789.88 L 278.34,792.38 L 272.76,794.00 L 266.88,794.86 L 260.81,795.10 L 254.68,794.82 L 248.64,794.04 L 242.86,792.66 L 237.44,790.51 L 232.49,787.42 L 228.02,783.27 L 224.04,778.14 L 220.53,772.31 L 217.45,766.30 L 214.82,760.76 L 212.69,756.41 L 211.14,753.83 L 210.26,753.41 L 210.18,755.21 L 210.94,759.00 L 212.59,764.25 L 215.08,770.29 L 218.31,776.44 L 222.18,782.12 L 226.54,786.95 L 231.29,790.81 L 236.36,793.73 L 241.70,795.88 L 247.28,797.46 L 253.07,798.59 L 259.02,799.31 L 265.07,799.51 L 271.10,799.05 L 276.98,797.74 L 282.57,795.49 L 287.78,792.28 L 292.52,788.24 L 296.77,783.57 L 300.54,778.50 L 303.87,773.27 L 306.80,768.01 L 309.36,762.79 L 311.59,757.55 L 313.49,752.21 L 315.05,746.66 L 316.28,740.81 L 317.18,734.68 L 317.75,728.32 L 318.02,721.85 L 318.01,715.40 L 317.73,709.08 L 317.20,702.95 L 316.41,697.03 L 315.36,691.25 L 314.05,685.56 L 312.49,679.89 L 310.72,674.20 L 308.76,668.50 L 306.67,662.81 L 304.48,657.19 L 302.21,651.69 L 299.89,646.31 L 297.49,641.05 L 295.01,635.86 L 292.43,630.69 L 289.76,625.48 L 287.00,620.21 L 284.19,614.88 L 281.36,609.52 L 278.54,604.17 L 275.74,598.88 L 272.98,593.67 L 270.23,588.53 L 267.49,583.42 L 264.76,578.31 L 262.05,573.13 L 259.40,567.84 L 256.89,562.41 L 254.58,556.85 L 252.56,551.17 L 250.89,545.39 L 249.59,539.52 L 248.69,533.57 L 248.16,527.54 L 247.99,521.44 L 248.17,515.29 L 248.66,509.12 L 249.48,502.98 L 250.62,496.92 L 252.08,491.01 L 253.82,485.28 L 255.84,479.74 L 258.07,474.35 L 260.48,469.07 L 263.04,463.86 L 265.72,458.66 L 268.52,453.45 L 271.45,448.23 L 274.53,443.03 L 277.78,437.90 L 281.17,432.86 L 284.70,427.92 L 288.31,423.08 L 291.97,418.30 L 295.63,413.53 L 299.29,408.73 L 302.93,403.88 L 306.58,398.98 L 310.27,394.05 L 314.02,389.12 L 317.81,384.25 L 321.63,379.43 L 325.44,374.65 L 329.18,369.89 L 332.82,365.11 L 336.34,360.26 L 339.75,355.31 L 343.07,350.28 L 346.34,345.18 L 349.56,340.05 L 352.72,334.91 L 355.78,329.77 L 358.66,324.62 L 361.26,319.39 L 363.50,314.03 L 365.34,308.46 L 366.75,302.67 L 367.76,296.66 L 368.41,290.46 L 368.77,284.16 L 368.86,277.84 L 368.71,271.60 L 368.29,265.48 L 367.57,259.51 L 366.54,253.67 L 365.18,247.92 L 363.53,242.22 L 361.64,236.55 L 359.61,230.88 L 357.53,225.23 L 355.48,219.62 L 353.50,214.05 L 351.59,208.53 L 349.72,203.06 L 347.87,197.59 L 346.01,192.08 L 344.16,186.49 L 342.35,180.79 L 340.66,174.97 L 339.17,169.05 L 337.97,163.03 L 337.09,156.96 L 336.54,150.85 L 336.29,144.73 L 336.33,138.59 L 336.60,132.47 L 337.11,126.37 L 337.88,120.31 L 338.95,114.35 L 340.37,108.50 L 342.14,102.79 L 344.26,97.23 L 346.67,91.82 L 349.28,86.53 L 352.00,81.30 L 354.77,76.12 L 357.58,70.96 L 360.49,65.83 L 363.60,60.75 L 367.03,55.77 L 370.86,50.93 L 375.14,46.27 L 379.80,41.80 L 384.71,37.52 L 389.69,33.43 L 394.58,29.51 L 399.29,25.79 L 403.83,22.28 L 408.35,19.04 L 413.04,16.11 L 418.15,13.51 L 423.83,11.26 L 430.09,9.30 L 436.74,7.59 L 443.38,6.06 L 449.47,4.65 L 454.38,3.36 L 457.58,2.23 L 458.66,1.34 L 457.51,0.80 L 454.28,0.72 L 449.34,1.17 L 443.27,2.17 L 436.66,3.67 L 430.06,5.57 L 423.82,7.77 L 418.14,10.18 L 413.00,12.72 L 408.24,15.39 L 403.64,18.24 L 399.00,21.33 L 394.19,24.73 L 389.21,28.47 L 384.15,32.55 L 379.14,36.90 L 374.37,41.46 L 369.94,46.13 L 365.91,50.85 L 362.26,55.61 L 358.90,60.40 L 355.74,65.27 L 352.70,70.26 L 349.72,75.41 L 346.82,80.72 L 344.07,86.15 L 341.52,91.66 L 339.26,97.21 L 337.32,102.78 L 335.71,108.37 L 334.38,114.03 L 333.31,119.81 L 332.44,125.76 L 331.78,131.89 L 331.34,138.19 L 331.17,144.57 L 331.32,150.94 L 331.83,157.22 L 332.70,163.33 L 333.90,169.25 L 335.34,175.00 L 336.95,180.64 L 338.63,186.24 L 340.34,191.86 L 342.07,197.53 L 343.84,203.23 L 345.69,208.93 L 347.64,214.57 L 349.71,220.12 L 351.86,225.59 L 354.00,231.01 L 356.05,236.45 L 357.89,242.00 L 359.45,247.71 L 360.69,253.63 L 361.60,259.74 L 362.21,265.98 L 362.56,272.28 L 362.67,278.57 L 362.55,284.77 L 362.16,290.85 L 361.44,296.80 L 360.34,302.65 L 358.83,308.39 L 356.89,314.05 L 354.57,319.61 L 351.93,325.05 L 349.05,330.35 L 346.02,335.50 L 342.87,340.50 L 339.64,345.40 L 336.32,350.24 L 332.89,355.08 L 329.32,359.95 L 325.63,364.87 L 321.82,369.83 L 317.96,374.78 L 314.10,379.68 L 310.27,384.51 L 306.51,389.27 L 302.81,393.97 L 299.14,398.66 L 295.46,403.38 L 291.75,408.19 L 288.00,413.08 L 284.25,418.05 L 280.55,423.07 L 276.97,428.10 L 273.55,433.11 L 270.33,438.09 L 267.29,443.07 L 264.40,448.08 L 261.62,453.19 L 258.91,458.40 L 256.27,463.75 L 253.72,469.21 L 251.32,474.75 L 249.14,480.35 L 247.25,485.98 L 245.69,491.67 L 244.48,497.43 L 243.58,503.31 L 242.97,509.35 L 242.61,515.54 L 242.50,521.84 L 242.65,528.19 L 243.12,534.48 L 243.96,540.62 L 245.21,546.55 L 246.87,552.23 L 248.89,557.70 L 251.20,563.03 L 253.69,568.29 L 256.26,573.57 L 258.85,578.90 L 261.43,584.28 L 264.01,589.69 L 266.65,595.05 L 269.39,600.33 L 272.25,605.50 L 275.22,610.58 L 278.24,615.62 L 281.24,620.68 L 284.13,625.82 L 286.87,631.09 L 289.43,636.48 L 291.86,641.95 L 294.19,647.45 L 296.50,652.92 L 298.81,658.33 L 301.11,663.69 L 303.35,669.03 L 305.46,674.44 L 307.34,679.99 L 308.94,685.71 L 310.22,691.63 L 311.21,697.73 L 311.95,703.93 L 312.49,710.18 L 312.85,716.39 L 313.02,722.53 L 312.95,728.57 L 312.54,734.53 L 311.72,740.43 L 310.44,746.29 L 308.67,752.10 L 306.48,757.84 L 303.91,763.47 L 301.03,768.89 L 297.89,774.05 L 294.45,778.85 L 290.64,783.23 L 286.38,787.09 L 281.57,790.37 L 276.19,792.98 L 270.31,794.84 L 264.09,795.87 L 257.75,795.99 L 251.54,795.19 L 245.68,793.49 L 240.28,790.95 L 235.38,787.70 L 230.90,783.89 L 226.76,779.65 L 222.86,775.12 L 219.21,770.35 L 215.94,765.36 L 213.27,760.12 L 211.51,754.60 L 210.92,748.74 L 211.63,742.58 L 213.61,736.23 L 216.59,729.89 L 220.10,723.84 L 223.54,718.47 L 226.31,714.13 L 227.93,711.19 L 228.11,709.88 L 226.82,710.33 L 224.29,712.51 L 220.94,716.25 L 217.30,721.24 L 213.90,727.11 L 211.16,733.49 L 209.34,740.01 L 208.56,746.43 L 208.78,752.58 L 209.87,758.41 L 211.66,763.95 L 214.02,769.23 L 216.86,774.30 L 220.16,779.18 L 223.91,783.79 L 228.16,788.04 L 232.90,791.78 L 238.13,794.89 L 243.77,797.27 L 249.72,798.86 L 255.84,799.67 L 262.00,799.75 L 268.09,799.15 L 273.99,797.93 L 279.62,796.09 L 284.92,793.63 L 289.86,790.53 L 294.40,786.78 L 298.52,782.40 L 302.19,777.47 L 305.41,772.13 L 308.18,766.54 L 310.53,760.84 L 312.49,755.15 L 314.09,749.50 L 315.39,743.87 L 316.41,738.18 L 317.18,732.35 L 317.71,726.29 L 317.98,720.01 L 317.97,713.57 L 317.67,707.07 L 317.05,700.67 L 316.13,694.48 L 314.90,688.58 L 313.42,682.95 L 311.72,677.52 L 309.86,672.16 L 307.90,666.76 L 305.85,661.24 L 303.74,655.60 L 301.56,649.89 L 299.28,644.21 L 296.89,638.66 L 294.38,633.30 L 291.75,628.15 L 289.01,623.13 L 286.22,618.15 L 283.41,613.09 L 280.61,607.88 L 277.85,602.51 L 275.13,597.03 L 272.41,591.53 L 269.69,586.11 L 266.93,580.86 L 264.15,575.77 L 261.38,570.77 L 258.69,565.76 L 256.17,560.60 L 253.90,555.17 L 251.97,549.45 L 250.42,543.44 L 249.29,537.25 L 248.54,530.99 L 248.16,524.77 L 248.11,518.67 L 248.36,512.70 L 248.92,506.82 L 249.79,500.98 L 251.00,495.14 L 252.56,489.29 L 254.45,483.45 L 256.65,477.71 L 259.09,472.13 L 261.70,466.76 L 264.43,461.62 L 267.24,456.64 L 270.11,451.73 L 273.07,446.80 L 276.16,441.78 L 279.39,436.64 L 282.79,431.43 L 286.35,426.23 L 290.01,421.13 L 293.73,416.21 L 297.46,411.47 L 301.16,406.86 L 304.83,402.29 L 308.47,397.66 L 312.13,392.89 L 315.85,387.96 L 319.62,382.90 L 323.45,377.80 L 327.28,372.76 L 331.06,367.85 L 334.73,363.08 L 338.26,358.40 L 341.63,353.72 L 344.86,348.93 L 347.99,343.95 L 351.06,338.75 L 354.06,333.38 L 356.97,327.90 L 359.72,322.40 L 362.21,316.94 L 364.35,311.53 L 366.08,306.10 L 367.35,300.54 L 368.20,294.76 L 368.68,288.70 L 368.84,282.36 L 368.75,275.86 L 368.44,269.34 L 367.90,262.97 L 367.10,256.87 L 366.01,251.07 L 364.61,245.54 L 362.91,240.15 L 360.98,234.76 L 358.91,229.26 L 356.80,223.58 L 354.73,217.76 L 352.76,211.90 L 350.89,206.11 L 349.08,200.49 L 347.27,195.06 L 345.44,189.75 L 343.57,184.45 L 341.72,179.02 L 339.98,173.33 L 338.47,167.34 L 337.29,161.09 L 336.52,154.70 L 336.16,148.31 L 336.18,142.04 L 336.50,135.97 L 337.05,130.09 L 337.78,124.32 L 338.67,118.56 L 339.77,112.74 L 341.15,106.85 L 342.87,100.93 L 344.96,95.08 L 347.42,89.44 L 350.18,84.08 L 353.13,79.00 L 356.17,74.13 L 359.23,69.36 L 362.33,64.55 L 365.53,59.62 L 368.96,54.56 L 372.73,49.47 L 376.94,44.51 L 381.59,39.83 L 386.60,35.55 L 391.79,31.69 L 396.97,28.19 L 401.98,24.92 L 406.73,21.75 L 411.28,18.61 L 415.80,15.51 L 420.56,12.58 L 425.80,9.98 L 431.70,7.87 L 438.24,6.31 L 445.22,5.25 L 452.19,4.51 L 458.59,3.86 L 463.82,3.09 L 467.34,2.12 L 468.85,1.08 L 468.31,0.26 L 465.97,0.11 L 462.32,1.08 L 458.00,3.50 L 453.64,7.49 L 449.77,12.88 L 446.70,19.31 L 444.50,26.23 L 443.01,33.15 L 441.92,39.69 L 440.89,45.71 L 439.59,51.29 L 437.87,56.67 L 435.71,62.16 L 433.24,67.99 L 430.66,74.26 L 428.21,80.87 L 426.05,87.59 L 424.23,94.16 L 422.67,100.40 L 421.24,106.23 L 419.74,111.76 L 418.03,117.21 L 416.04,122.83 L 413.81,128.79 L 411.43,135.15 L 409.08,141.80 L 406.90,148.50 L 404.96,155.03 L 403.25,161.19 L 401.70,166.96 L 400.16,172.45 L 398.48,177.89 L 396.57,183.52 L 394.44,189.52 L 392.14,195.93 L 389.81,202.63 L 387.60,209.37 L 385.59,215.90 L 383.81,222.05 L 382.20,227.77 L 380.64,233.20 L 379.00,238.58 L 377.16,244.18 L 375.09,250.19 L 372.83,256.65 L 370.50,263.41 L 368.25,270.22 L 366.18,276.81 L 364.34,282.95 L 362.71,288.64 L 361.16,293.99 L 359.56,299.28 L 357.78,304.82 L 355.76,310.82 L 353.52,317.31 L 351.17,324.16 L 348.87,331.08 L 346.74,337.75 L 344.85,343.92 L 343.20,349.56 L 341.68,354.81 L 340.14,359.98 L 338.43,365.41 L 336.46,371.37 L 334.23,377.91 L 331.85,384.88 L 329.48,391.95 L 327.27,398.74 L 325.32,404.98 L 323.66,410.58 L 322.19,415.69 L 320.73,420.67 L 319.11,425.93 L 317.21,431.79 L 314.99,438.37 L 312.56,445.50 L 310.09,452.81 L 307.76,459.83 L 305.73,466.20 L 304.05,471.77 L 302.64,476.69 L 301.31,481.37 L 299.84,486.33 L 298.05,491.99 L 295.87,498.57 L 293.36,505.93 L 290.72,513.63 L 288.20,521.08 L 286.01,527.76 L 284.27,533.38 L 282.94,538.04 L 281.82,542.19 L 280.63,546.52 L 279.09,551.67 L 277.03,558.07 L 274.44,565.71 L 271.51,574.14 L 268.55,582.59 L 265.93,590.19 L 263.92,596.32 L 262.62,600.78 L 261.92,603.90 L 261.46,606.51 L 260.79,609.71 L 259.47,614.55 L 257.16,621.75 L 253.75,631.45 L 249.41,643.20 L 244.51,656.08 L 239.56,668.88 L 235.09,680.44 L 231.51,689.88 L 229.05,696.77 L 227.74,701.13 L 227.39,703.34 L 227.70,704.00 L 228.32,703.71 L 228.94,703.01 Z" fill="none" stroke="black" stroke-width="2"/>
</svg>